<svg xmlns="http://www.w3.org/2000/svg" viewBox="0 0 32 32" fill="none">
  <rect width="32" height="32" rx="6" fill="#000"/>
  <path d="M21.5 17.2c0-2.1 1.7-3.1 1.8-3.2-1-1.4-2.5-1.6-3-1.7-1.3-.1-2.5.8-3.1.8-.7 0-1.7-.7-2.8-.7-1.4 0-2.7.8-3.5 2.1-1.5 2.6-.4 6.4 1.1 8.5.7 1 1.5 2.2 2.6 2.1 1.1 0 1.5-.7 2.7-.7 1.3 0 1.6.7 2.8.7 1.1 0 1.9-1 2.6-2.1.8-1.2 1.1-2.3 1.1-2.4-.1-.1-2.3-.8-2.3-3.4zM19.4 10.5c.6-.7 1-1.7.9-2.7-.8 0-1.9.6-2.5 1.3-.5.6-1 1.7-.9 2.7.9.1 1.9-.5 2.5-1.3z" fill="white"/>
</svg>
