<svg width="795" height="287" viewBox="0 0 795 287" fill="none" xmlns="http://www.w3.org/2000/svg">
<g clip-path="url(#clip0_6341_46567)">
<path d="M106.522 91.4993C127.532 91.4993 144.566 108.448 144.566 129.352C144.566 150.256 127.532 167.205 106.522 167.205C85.5128 167.205 68.4787 150.256 68.4787 129.352C68.4787 108.448 85.5128 91.4993 106.522 91.4993ZM106.522 23.3643C92.1705 23.3643 78.2179 26.1748 65.0358 31.7203C52.3387 37.0575 40.9541 44.6943 31.1959 54.4036C21.4376 64.1128 13.7623 75.4403 8.39816 88.0736C2.82475 101.18 0 115.072 0 129.352C0 143.632 2.82475 157.515 8.39816 170.631C13.7623 183.264 21.4376 194.591 31.1959 204.301C40.9541 214.01 52.3387 221.647 65.0358 226.984C78.2084 232.529 92.1705 235.34 106.522 235.34C120.874 235.34 134.827 232.529 148.009 226.984C160.706 221.647 172.091 214.01 181.849 204.301C191.607 194.591 199.283 183.264 204.647 170.631C210.22 157.524 213.045 143.632 213.045 129.352C213.045 115.072 210.22 101.19 204.647 88.0736C199.283 75.4403 191.607 64.1128 181.849 54.4036C172.091 44.6943 160.706 37.0575 148.009 31.7203C134.837 26.1748 120.874 23.3643 106.522 23.3643Z" fill="#B7F7B0"/>
<path d="M106.522 91.4995C127.532 91.4995 144.566 108.448 144.566 129.352C144.566 150.257 127.532 167.205 106.522 167.205C85.5127 167.205 68.4787 150.257 68.4787 129.352C68.4787 108.448 85.5127 91.4995 106.522 91.4995ZM106.522 46.0762C60.3753 46.0762 22.8262 83.4369 22.8262 129.352C22.8262 175.268 60.3753 212.629 106.522 212.629C152.669 212.629 190.219 175.268 190.219 129.352C190.219 83.4369 152.669 46.0762 106.522 46.0762Z" fill="#07DC10"/>
<path d="M106.522 91.4998C127.532 91.4998 144.566 108.448 144.566 129.353C144.566 150.257 127.532 167.205 106.522 167.205C85.5127 167.205 68.4786 150.257 68.4786 129.353C68.4786 108.448 85.5127 91.4998 106.522 91.4998ZM106.522 68.7881C72.9582 68.7881 45.6523 95.9569 45.6523 129.353C45.6523 162.748 72.9582 189.917 106.522 189.917C140.086 189.917 167.392 162.748 167.392 129.353C167.392 95.9569 140.086 68.7881 106.522 68.7881Z" fill="#0C9B00"/>
<path d="M106.522 91.5C127.532 91.5 144.566 108.449 144.566 129.353C144.566 150.257 127.532 167.206 106.522 167.206C85.5126 167.206 68.4785 150.257 68.4785 129.353C68.4785 108.449 85.5126 91.5 106.522 91.5Z" fill="#EAEAEA"/>
<path d="M334.205 275.644L343.374 247.576C340.083 247.803 336.754 247.917 333.378 247.917C299.919 247.917 270.749 236.353 249.016 214.474C227.36 192.67 215.918 163.363 215.918 129.721C215.918 96.0795 227.702 66.63 249.111 45.035C270.644 23.317 300.689 11.3555 333.72 11.3555C360.018 11.3555 384.281 18.8219 403.911 32.941C408.942 36.556 413.66 40.6252 418.006 45.0539H426.747V13.5225H566.719L566.833 47.2778C570.571 48.5175 574.214 49.9843 577.742 51.6876C591.324 45.3 606.237 42.0636 622.177 42.0636C622.758 42.0636 623.328 42.0636 623.908 42.073H624.308C625.059 42.073 625.811 42.092 626.553 42.1109H714.633L783.597 41.9216V190.314L755.901 185.847V248.409H624.707C624.346 248.418 624.013 248.428 623.671 248.428C623.129 248.428 622.501 248.437 621.883 248.437C606.047 248.437 590.592 245.002 576.81 238.463C564.037 244.519 550.094 247.936 537.758 247.936H489.728L480.018 275.653H334.224L334.205 275.644Z" fill="#07DC10"/>
<path d="M333.72 22.7117C357.602 22.7117 379.553 29.4306 397.215 42.1396C402.997 46.3034 408.295 51.0824 413.022 56.4101H438.15V24.8788H555.334L555.41 47.5147L555.439 55.9086C563.285 57.6593 570.77 60.5456 577.666 64.4823C590.886 57.2051 605.98 53.4198 622.177 53.4198C622.728 53.4198 623.28 53.4198 623.832 53.4292C623.993 53.4292 624.146 53.4292 624.307 53.4292C624.954 53.4292 625.601 53.4482 626.238 53.4576H626.438H714.633L749.291 53.363L772.183 53.2968V176.952L745.705 172.675L744.487 172.476V212.203V212.269V237.034H624.507C624.193 237.044 623.879 237.053 623.565 237.053C623.004 237.053 622.434 237.063 621.882 237.063C605.685 237.063 590.192 233.088 576.819 225.669C564.617 232.397 550.293 236.552 537.758 236.552H481.624L477.249 249.034L471.914 264.269H349.936L359.656 234.536L359.903 233.779C351.524 235.624 342.679 236.552 333.406 236.552C303.066 236.552 276.702 226.152 257.157 206.478C237.659 186.851 227.359 160.297 227.359 129.703C227.359 99.1081 237.983 72.4503 257.261 52.9939C276.626 33.4524 303.789 22.6928 333.739 22.6928M333.72 0C297.616 0 264.68 13.1633 240.988 37.0674C217.468 60.8011 204.514 93.7046 204.514 129.722C204.514 165.739 217.097 198.491 240.903 222.461C263.558 245.267 293.431 257.891 327.585 259.178L318.493 287.009H488.111L493.446 271.774L497.821 259.292H537.739C550.141 259.292 563.884 256.301 576.791 250.898C590.819 256.746 606.189 259.793 621.863 259.793C622.519 259.793 623.176 259.793 623.841 259.774C624.174 259.774 624.498 259.765 624.83 259.755H767.304V212.099V212.061V211.578V199.181L768.522 199.38L795 203.658V30.5283L772.107 30.5945L749.214 30.6608L714.604 30.7554H626.723C626.01 30.7365 625.192 30.7176 624.288 30.7176H623.965C623.366 30.7176 622.767 30.7081 622.167 30.7081C606.579 30.7081 591.847 33.5187 578.208 39.0736L578.16 24.8125L578.084 2.17654H415.324V27.3392C413.773 26.0995 412.194 24.9071 410.587 23.7432C389.016 8.2046 362.433 0 333.72 0Z" fill="#B7F7B0"/>
<path d="M365.63 251.04L377.804 213.802C364.707 220.124 349.832 223.322 333.388 223.322C306.167 223.322 282.609 214.086 265.261 196.627C247.922 179.167 238.754 155.377 238.754 127.839C238.754 100.301 248.208 76.4156 265.375 59.1074C282.58 41.7519 306.852 32.1846 333.73 32.1846C355.187 32.1846 374.836 38.1559 390.539 49.4549C396.987 54.1013 402.741 59.6089 407.706 65.8736H449.583V34.3422H543.979L544.074 63.6876C556.429 64.7948 567.794 68.968 577.571 75.9613C590.364 67.3688 605.6 62.8737 622.187 62.8737C622.72 62.8737 623.252 62.8737 623.785 62.8832H624.308C624.85 62.8832 625.383 62.8927 625.925 62.9116H626.296L714.662 62.9211L760.781 62.798V161.726L733.047 157.25C733.047 157.828 733.085 159.701 733.085 159.701V212.449V223.805H624.185C623.928 223.814 623.671 223.824 623.414 223.824C622.901 223.824 622.387 223.833 621.883 223.833C605.068 223.833 589.679 219.253 576.839 210.509C564.351 218.95 548.715 223.322 537.759 223.322H473.512C472.923 225.007 472.361 226.625 471.81 228.186L463.802 251.04H365.639H365.63Z" fill="#0C9B00"/>
<path d="M333.72 45.4236C352.761 45.4236 370.099 50.6473 383.842 60.5458C390.899 65.6275 396.967 71.8827 401.913 79.1221H460.995V47.5907H532.603L532.679 70.2266C532.679 72.1855 532.688 74.3905 532.688 76.7563C533.896 76.6806 535.123 76.6427 536.35 76.6427C536.673 76.6427 536.997 76.6427 537.311 76.6427C552.785 76.6427 566.671 82.1787 577.304 92.4084C589.269 81.8569 604.895 76.1317 622.186 76.1317C622.69 76.1317 623.194 76.1317 623.708 76.1412C623.908 76.1412 624.117 76.1412 624.317 76.1412C624.935 76.1412 625.544 76.1601 626.162 76.179H714.671L749.376 76.0844V150.276L722.898 145.999C722.641 145.961 722.393 145.923 722.156 145.885C721.804 148.79 721.528 153.522 721.68 161.168V161.386V161.603V212.364V214.351H624.307C623.974 214.351 623.641 214.37 623.309 214.37C622.833 214.37 622.367 214.38 621.901 214.38C604.458 214.38 588.727 208.598 576.781 197.951C566.31 207.992 549.19 213.878 537.777 213.878H465.399C463.848 218.345 462.384 222.556 461.052 226.36L455.716 241.596H381.379L391.099 211.862L395.436 198.586L395.531 198.302L395.636 198.018C396.596 195.311 397.614 192.113 398.594 189.028C398.66 188.81 398.727 188.592 398.803 188.384C398.489 187.57 398.175 186.747 397.861 185.924C393.572 191.138 388.626 195.709 383.091 199.541C369.348 209.061 352.637 213.888 333.425 213.888C309.324 213.888 288.571 205.825 273.411 190.561C258.222 175.268 250.195 154.25 250.195 129.75C250.195 80.1157 284.558 45.452 333.748 45.452M333.72 22.7119C303.77 22.7119 276.606 33.4716 257.242 53.0131C237.964 72.4694 227.34 99.714 227.34 129.722C227.34 159.73 237.65 186.861 257.138 206.497C276.683 226.171 303.047 236.571 333.387 236.571C342.66 236.571 351.505 235.643 359.884 233.798L359.637 234.555L349.917 264.289H471.895L477.23 249.053L481.605 236.571H537.739C550.274 236.571 564.607 232.416 576.8 225.688C590.173 233.107 605.666 237.082 621.863 237.082C622.424 237.082 622.985 237.082 623.546 237.072C623.86 237.072 624.174 237.063 624.488 237.053H624.516H721.642H744.468V212.231V211.635V172.495L745.686 172.694L772.164 176.972V53.3064L749.271 53.3727L714.614 53.4673H626.219C625.582 53.4484 624.935 53.4295 624.288 53.4295C624.127 53.4295 623.974 53.4295 623.813 53.4295C623.261 53.4295 622.709 53.42 622.158 53.42C605.961 53.42 590.867 57.2053 577.647 64.4825C570.751 60.5458 563.276 57.6595 555.42 55.9088L555.391 47.515L555.315 24.879H438.131V56.4104H413.003C408.266 51.0826 402.978 46.3037 397.196 42.1399C379.534 29.4308 357.573 22.7119 333.701 22.7119H333.72Z" fill="#07DC10"/>
<path d="M726.521 99.0511V122.624C723.639 122.16 721.033 121.924 718.684 121.924C701.802 121.924 698.321 134.15 698.825 160.638V188.024H672.803C672.727 176.451 672.984 111.098 672.642 100.877H696.828C696.837 108.391 696.581 109.612 696.486 114.656H696.819C701.327 103.537 709.839 98.7199 721.186 98.7199C723.687 98.7199 725.361 98.8902 726.521 99.0511ZM668.276 150.531H603.202C604.372 163.647 612.38 171.284 623.889 171.284C631.897 171.284 637.404 168.293 640.58 162.152H667.106C661.761 179.252 646.582 190.702 623.061 190.702C622.662 190.712 622.262 190.712 621.872 190.712C561.801 190.712 562.572 97.8966 622.167 97.8966C622.633 97.8966 623.09 97.8966 623.556 97.8966H624.298C654.685 97.8966 670.283 121.28 668.276 150.521V150.531ZM642.245 134.415C640.913 122.965 634.237 116.321 623.394 116.321C612.552 116.321 605.371 122.965 603.878 134.415H642.245ZM536.369 190.22C536.036 190.22 535.703 190.21 535.37 190.21C520.514 190.21 512.002 182.403 508.169 176.422C508.331 179.242 508.331 184.561 508.331 188.052H483.812V69.3556H509.833C509.872 80.2193 509.814 99.335 509.672 110.028C513.847 105.051 522.35 98.4076 536.531 98.4076H537.292C588.128 98.3981 587.224 190.22 536.369 190.22ZM528.285 118.138C528.085 118.138 527.895 118.138 527.686 118.148C515.844 118.148 508.169 128.113 508.169 143.547C508.169 158.982 515.169 170.11 527.686 170.11H528.256C553.784 170.11 553.926 118.138 528.285 118.138ZM449.011 116.766C444.427 132.371 439.462 149.244 437.132 159.644H436.295C430.722 140.311 424.577 121.943 418.101 100.877H390.414C400.42 129.258 412.27 158.48 422.951 186.87C421.182 191.866 419.175 198.822 417.111 204.632L412.765 217.909H439.462C450.714 185.829 470.886 126.39 480.511 100.877H453.643C452.235 105.779 450.647 111.192 449.011 116.766ZM332.768 89.9191C333.025 89.9191 333.292 89.9191 333.548 89.9286C346.892 89.9286 355.909 96.5717 361.082 108.022L390.947 107.861C383.433 82.4526 362.909 67.1885 333.72 67.1885C297.683 67.1885 272.992 91.0831 272.992 128.775C272.992 166.467 297.178 190.191 333.387 190.191C362.585 190.191 382.777 175.921 390.614 150.853H360.074C354.739 160.808 346.226 166.789 333.548 166.789C333.187 166.789 332.816 166.808 332.455 166.808C290.331 166.808 291.396 89.9191 332.768 89.9191Z" fill="#EAEAEA"/>
</g>
<defs>
<clipPath id="clip0_6341_46567">
<rect width="795" height="287" fill="white"/>
</clipPath>
</defs>
</svg>
